<?xml version="1.0" encoding="UTF-8"?>
<svg id="Ebene_1" data-name="Ebene 1" xmlns="http://www.w3.org/2000/svg" viewBox="0 0 28.35 28.35">
  <defs>
    <style>
      .cls-1 {
        fill: #fff;
      }

      .cls-2 {
        fill: #e1201a;
      }
    </style>
  </defs>
  <path class="cls-1" d="M14.17,28.35c7.83,0,14.17-6.35,14.17-14.17S22,0,14.17,0,0,6.35,0,14.17s6.34,14.17,14.17,14.17"/>
  <path class="cls-2" d="M.76,18.81c-.48-1.42-.75-2.93-.76-4.51l12.21,1.28c.06-.39,.16-.76,.31-1.12L.74,9.65c.52-1.56,1.31-3,2.31-4.26l10.15,7.91c.24-.31,.53-.59,.84-.83L6.38,2.32c1.25-.82,2.62-1.46,4.1-1.86l4.79,11.32c.37-.14,.75-.23,1.15-.28L14.94,0c1.47,.08,2.89,.38,4.21,.87l-1.35,10.68c.39,.07,.76,.18,1.11,.34l3.74-9.11c1.08,.81,2.05,1.77,2.86,2.84l-5.47,6.97c.3,.25,.57,.54,.8,.86l6.35-4.95c.44,1.02,.77,2.09,.97,3.22l-6.68,2.94c.12,.32,.2,.65,.24,1l6.63-.61c-.06,1.07-.24,2.1-.52,3.09l-6.14-.96c-.05,.27-.12,.53-.22,.78l5.58,2.27c-.42,.9-.93,1.74-1.51,2.53l-4.77-3.52c-.19,.25-.4,.47-.63,.68l3.87,4.58c-.67,.64-1.4,1.22-2.18,1.72l-2.84-5.55c-.35,.16-.72,.28-1.12,.36l1.21,6.55c-.99,.36-2.04,.62-3.12,.75l.56-7.24c-.45-.04-.88-.15-1.28-.31l-2.65,7.57c-1.24-.15-2.42-.44-3.54-.88l5.07-7.31c-.32-.24-.61-.51-.86-.83l-7.59,6.24c-1.12-.85-2.1-1.85-2.92-2.98l9.79-4.49c-.14-.34-.24-.69-.29-1.06L.76,18.81Z"/>
</svg>