<?xml version="1.0" encoding="utf-8"?>
<!-- Generator: Adobe Illustrator 27.0.1, SVG Export Plug-In . SVG Version: 6.00 Build 0)  -->
<svg version="1.1" id="Ebene_1" xmlns="http://www.w3.org/2000/svg" xmlns:xlink="http://www.w3.org/1999/xlink" x="0px" y="0px"
	 viewBox="0 0 28.4 28.4" style="enable-background:new 0 0 28.4 28.4;" xml:space="preserve">
<style type="text/css">
	.st0{clip-path:url(#SVGID_00000153675517623123347040000016838867443943608475_);}
	.st1{fill:#2847CC;}
	.st2{fill:#0F87CD;}
	.st3{fill-rule:evenodd;clip-rule:evenodd;fill:#CC9900;}
</style>
<g>
	<defs>
		<rect id="SVGID_1_" width="28.4" height="28.4"/>
	</defs>
	<clipPath id="SVGID_00000176724975040833329810000012418651127708217245_">
		<use xlink:href="#SVGID_1_"  style="overflow:visible;"/>
	</clipPath>
	<g style="clip-path:url(#SVGID_00000176724975040833329810000012418651127708217245_);">
		<path class="st1" d="M0,14.2C0,6.3,6.3,0,14.2,0s14.2,6.3,14.2,14.2S22,28.3,14.2,28.3S0,22,0,14.2"/>
		<path class="st2" d="M28.1,16.5c-0.3-0.1-0.6-0.1-0.9-0.1c-1.4,0-3.1,0.9-4.9,3.3c-0.6,0.8-2,2.4-4.6,2.4c-2.1,0-3.9-1.5-3.5-3.6
			c0.3-1.9,2.6-2.6,3.9-1.8c0.1-1.6-1.8-3.6-4.5-3.6c-2.4,0-4.2,1.1-7.1,3.9c-0.8,0.8-2.4,2.5-4.9,3.9c0.5,1,1.2,1.9,1.9,2.7
			c0.7,0,1.4,0.2,2,0.5c0.6,0.3,1.3,0.4,2,0.4c0.7,0,1.4-0.2,2-0.4c0.6-0.3,1.3-0.5,2.1-0.5c0.7,0,1.4,0.2,2.1,0.5
			c0.6,0.3,1.3,0.4,2,0.4c0.7,0,1.4-0.2,2-0.4c0.6-0.3,1.3-0.5,2.1-0.5c0.7,0,1.4,0.2,2.1,0.5c0.6,0.3,1.3,0.4,2,0.4
			c0.1,0,0.1,0,0.2,0C26.1,22.4,27.6,19.6,28.1,16.5z"/>
		<path class="st3" d="M11.8,3.3h2V2.5c-0.3-0.1-0.6-0.5-0.6-0.9c0-0.5,0.4-1,1-1s1,0.4,1,1c0,0.4-0.2,0.7-0.6,0.9v0.7h2
			c0.1-0.1,0.2-0.2,0.4-0.2c0.3,0,0.5,0.2,0.5,0.5S17.2,4.1,17,4.1c-0.1,0-0.3-0.1-0.4-0.2h-2v1.9c0,2.5,0.4,3.8,0.6,3.9
			c2.1-0.3,3.6-1.1,4.4-2.3c-0.1,0-0.3,0-0.4,0c-0.5,0.2-0.6-0.1-0.3-0.3c0.4-0.4,0.7-0.5,1.2-0.9C20.4,6,20.5,6,20.5,6.4
			c0,0.5,0,1,0.1,1.5c0,0.3-0.3,0.3-0.5-0.1c-0.1-0.1-0.1-0.2-0.2-0.3c-0.9,1.7-2.7,3.3-5,4.3c0,0.1-0.1,0.1-0.1,0.2
			c-0.4,0.4-0.9,0.4-1.3,0c-0.1-0.1-0.1-0.2-0.1-0.2c-2.3-1-4-2.6-4.9-4.2C8.4,7.6,8.3,7.7,8.2,7.9C8,8.3,7.8,8.2,7.8,7.9
			c0-0.5,0-1,0.1-1.5C7.8,6,8,6,8.3,6.2c0.5,0.3,0.8,0.5,1.2,0.9c0.3,0.2,0.2,0.5-0.3,0.3c-0.2,0-0.3,0-0.4,0c0.9,1.2,2.3,2,4.4,2.3
			c0.2-0.1,0.6-1.5,0.6-4.2V3.9h-2c-0.1,0.1-0.2,0.2-0.4,0.2c-0.3,0-0.5-0.2-0.5-0.5s0.2-0.5,0.5-0.5C11.5,3.1,11.7,3.2,11.8,3.3
			L11.8,3.3z"/>
	</g>
</g>
</svg>
