<?xml version="1.0" encoding="UTF-8"?>
<svg id="Ebene_1" data-name="Ebene 1" xmlns="http://www.w3.org/2000/svg" xmlns:xlink="http://www.w3.org/1999/xlink" viewBox="0 0 28.35 28.35">
  <defs>
    <style>
      .cls-1 {
        stroke: #de9d40;
        stroke-miterlimit: 3.86;
        stroke-width: .62px;
      }

      .cls-1, .cls-2 {
        fill: none;
      }

      .cls-3 {
        fill: #de9d40;
      }

      .cls-4 {
        clip-path: url(#clippath);
      }

      .cls-5 {
        fill: #a73322;
      }

      .cls-6 {
        fill: #1d1d1b;
      }
    </style>
    <clipPath id="clippath">
      <rect class="cls-2" y="0" width="28.35" height="28.35"/>
    </clipPath>
  </defs>
  <g class="cls-4">
    <path class="cls-6" d="M0,14.17C0,6.35,6.35,0,14.17,0s14.17,6.35,14.17,14.17-6.35,14.17-14.17,14.17S0,22,0,14.17"/>
    <polygon class="cls-5" points="20.88 23.44 14.25 18.63 7.62 23.44 10.15 15.65 3.53 10.83 11.72 10.83 14.25 3.04 16.78 10.83 24.98 10.83 18.35 15.65 20.88 23.44"/>
    <path class="cls-5" d="M8.25,14.17c0-3.27,2.65-5.92,5.92-5.92s5.92,2.65,5.92,5.92-2.65,5.92-5.92,5.92-5.92-2.65-5.92-5.92"/>
    <path class="cls-1" d="M8.25,14.17c0-3.27,2.65-5.92,5.92-5.92s5.92,2.65,5.92,5.92-2.65,5.92-5.92,5.92-5.92-2.65-5.92-5.92Z"/>
    <path class="cls-3" d="M10.96,17.77l-.87-.78,.76-.88-.22-.22,.36-.36,.31,.32,.3-.27c2.24,1.29,3.67,.08,4.05-.3l-2.33-1.88-.64,.69-1-.84,1.14-1.35,1.11,.11,.22,.25-.14,.17,2.29,1.85c.16-.66,.42-2.27-.69-3.24-1.48-1.3-3.23-.71-3.23-.71,0,0,2.83-1.35,4.72,.54,1.81,1.81,.89,3.88,.54,4.5l1.01,.82-.74,.92-.96-.78c-2.5,2.31-5.1,.46-5.1,.46l-.87,.98Z"/>
  </g>
</svg>