<?xml version="1.0" encoding="UTF-8"?>
<svg id="Ebene_1" data-name="Ebene 1" xmlns="http://www.w3.org/2000/svg" xmlns:xlink="http://www.w3.org/1999/xlink" viewBox="0 0 28.35 28.35">
  <defs>
    <style>
      .cls-1 {
        fill: #4f799d;
      }

      .cls-2 {
        fill: #fff;
      }

      .cls-3 {
        clip-path: url(#clippath);
      }

      .cls-4 {
        fill: none;
      }

      .cls-5 {
        fill: #f0c953;
      }

      .cls-6 {
        fill: #c13829;
      }
    </style>
    <clipPath id="clippath">
      <rect class="cls-4" width="28.35" height="28.35"/>
    </clipPath>
  </defs>
  <g class="cls-3">
    <path class="cls-5" d="M0,14.17C0,6.34,6.34,0,14.17,0s14.17,6.34,14.17,14.17-6.35,14.17-14.17,14.17S0,22,0,14.17"/>
    <path class="cls-1" d="M3.52,14.17C3.52,8.28,8.29,3.52,14.17,3.52s10.66,4.77,10.66,10.66-4.77,10.66-10.66,10.66S3.52,20.06,3.52,14.17"/>
    <path class="cls-2" d="M7.07,14.17c0-3.93,3.18-7.1,7.11-7.1s7.11,3.18,7.11,7.1-3.18,7.1-7.11,7.1-7.11-3.18-7.11-7.1"/>
    <path class="cls-6" d="M10.62,14.17c0-1.96,1.59-3.55,3.55-3.55s3.55,1.59,3.55,3.55-1.59,3.55-3.55,3.55-3.55-1.59-3.55-3.55"/>
  </g>
</svg>