<?xml version="1.0" encoding="UTF-8"?>
<svg id="Ebene_1" data-name="Ebene 1" xmlns="http://www.w3.org/2000/svg" xmlns:xlink="http://www.w3.org/1999/xlink" viewBox="0 0 28.35 28.35">
  <defs>
    <style>
      .cls-1 {
        fill: #fff;
      }

      .cls-2 {
        fill: #c22a2c;
      }

      .cls-3 {
        clip-path: url(#clippath);
      }

      .cls-4 {
        fill: none;
      }

      .cls-5 {
        fill: #146390;
      }
    </style>
    <clipPath id="clippath">
      <rect class="cls-4" width="28.35" height="28.35"/>
    </clipPath>
  </defs>
  <path class="cls-5" d="M0,14.17C0,6.34,6.35,0,14.18,0s14.17,6.34,14.17,14.17-6.34,14.17-14.17,14.17S0,22,0,14.17"/>
  <g class="cls-3">
    <polygon class="cls-1" points="20.5 22.84 14.2 18.27 7.91 22.84 10.31 15.45 4.02 10.87 11.8 10.87 14.2 3.47 16.61 10.87 24.38 10.87 18.09 15.45 20.5 22.84"/>
    <path class="cls-2" d="M10.79,14.17c0-1.87,1.51-3.38,3.38-3.38s3.38,1.52,3.38,3.38-1.52,3.38-3.38,3.38-3.38-1.51-3.38-3.38"/>
  </g>
</svg>