<?xml version="1.0" encoding="UTF-8"?>
<svg id="Ebene_1" data-name="Ebene 1" xmlns="http://www.w3.org/2000/svg" viewBox="0 0 95 95"><defs>
  <style>
    .troopbadge-medal {
    fill: #4a4a4a;
    }

    .troopbadge-symbol {
    fill: #737373;
    }
  </style>
</defs>
<g>
  <circle class="troopbadge-medal" cx="47.5" cy="47.5" r="47.25"/>
  <path class="troopbadge-medal" d="M47.5,.5c25.92,0,47,21.08,47,47s-21.08,47-47,47S.5,73.42,.5,47.5,21.58,.5,47.5,.5m0-.5C21.27,0,0,21.27,0,47.5s21.27,47.5,47.5,47.5,47.5-21.27,47.5-47.5S73.73,0,47.5,0h0Z"/>
</g>
<path class="troopbadge-symbol" d="M17.35,75.56h60.3v-3.08l-19.66-.42v-.31l-2.75-1.62h-3.84s-1.12-1.92-1.12-2.54v-7.38h2.06s.94,.53,2.06,.53v-.73h2.65v-1.95h1.59l1.75-2.93h-5.74s.11-.37-.53-1.06c-.64-.69-1.58-1.66-1.58-1.66,0,0,.31-2.22-.75-4.09l1.98-2.73-.72-.69,6.46-8.57-1.37-1.11,10.13-13.94-2.46-1.84-19.04,24.77-.5-.33-2.78,3.62,.45,.47-3.5,4.54-.53-.37-2.78,3.57,.5,.48-.72,.86,2.28,1.83-2.04,2.82,2.95,2.2,2.71-3.53s.8,.51,1.72,.2v4.17l-4.57,4.01h-2.71v3.01h-.36v.28l-19.54,.51v3Z"/>
</svg>