<?xml version="1.0" encoding="UTF-8"?>
<svg id="Ebene_1" data-name="Ebene 1" xmlns="http://www.w3.org/2000/svg" viewBox="0 0 95 95">
    <defs>
        <style>
            .troopbadge-medal {
            fill: #4a4a4a;
            }

            .troopbadge-symbol {
            fill: #737373;
            }
        </style>
    </defs>
    <g>
        <circle class="troopbadge-medal" cx="47.5" cy="47.5" r="47.25"/>
        <path class="troopbadge-medal"
              d="M47.5,.5c25.92,0,47,21.08,47,47s-21.08,47-47,47S.5,73.42,.5,47.5,21.58,.5,47.5,.5m0-.5C21.27,0,0,21.27,0,47.5s21.27,47.5,47.5,47.5,47.5-21.27,47.5-47.5S73.73,0,47.5,0h0Z"/>
    </g>
    <path class="troopbadge-symbol"
          d="M11.98,58.68v-.83c0-.05,3.19-.05,3.19-.05l.46-.29s-.28-.63-.28-.68,5.07-2.2,5.07-2.2l.26-3.38,.55-.13s.02-.81,0-.86c-.02-.05,1.84-.79,1.84-.79l.2,.66,.84-.28,1.54,3.58,1.21-.55v-.5l1.94-.88,.15-.03c0-.07-.02-.13-.02-.19,0-1.05,.85-1.91,1.91-1.91,.89,0,1.64,.62,1.84,1.44l15.81-2.65-.22-1.6,.83-.13-.18-.82,.84-.15-1.14-6.11,3.27-.62,.02,.62,1.67-.26-.07-.68,3.14-.55,.15,.79,3.84-.59-.84-4.96,3.82-.68,.79,4.88,4.88-.82-.13-.57,1.63-.27,.11,.55,12.39-2.11,.7,3.76-8.46,1.56,.66,3.82-10.33,1.84,1.55,8.8-3.03,.56c.03,.25,.04,.5,.04,.76,0,4.04-3.27,7.32-7.32,7.32-3.74,0-6.81-2.8-7.26-6.42l-20,3.84s-.6-3.84-.65-3.86c-.06-.02-8.04,3.41-8.04,3.41l-.6,3.08H11.87l-.85-3.89h.96Z"/>
</svg>