<?xml version="1.0" encoding="UTF-8"?>
<svg id="Ebene_1" data-name="Ebene 1" xmlns="http://www.w3.org/2000/svg" viewBox="0 0 95 95">
  <defs>
    <style>
      .cls-1 {
        fill: #4a4a4a;
      }

      .cls-2 {
        fill: #737373;
      }
    </style>
  </defs>
  <g>
    <circle class="cls-1" cx="47.5" cy="47.5" r="47.25"/>
    <path class="cls-1" d="M47.5,.5c25.92,0,47,21.08,47,47s-21.08,47-47,47S.5,73.42,.5,47.5,21.58,.5,47.5,.5m0-.5C21.27,0,0,21.27,0,47.5s21.27,47.5,47.5,47.5,47.5-21.27,47.5-47.5S73.73,0,47.5,0h0Z"/>
  </g>
  <path class="cls-2" d="M87.02,52.54l2.02-3.17c.44-1.02-.62-1.09-.94-1.06-3.18,.41-11.78,1.17-11.78,1.17v-.36l-5.13-.26-.36-.64h-.81v-.35l-5.13-.18-.58-.67h-2.62l-1.5,.61v-.71h-3.14l-.3,.1v-.45l-.14-.03v-.68c0-.38-.58-.45-.58-.45h-2.28s-.48,0-.55,.38v.75h-.51v-.68l-.14-.03v-1.84l-.62-.04-.13-2.18-4.33,.03,.03,1.63,1.09-.03-.1,4.06c-2.36-1.13-2.29-1.63-2.29-1.63-.17-.55-.17-1.57-.17-1.57l-.3-.3-.03-.65c.14-.89-.79-.54-.79-.54l-2.38,.51c-.45,.17-.38,.62-.38,.62h-.14l-.1,5.19h-2.49v-1.95l-3.07,.03v-1.43c-.03-.52-.51-.65-.51-.65l-1.3,.03s-.54,.06-.54,.51v1.47l-1.71,.03c.03-.58-.47-.58-.47-.58h-1.64s-.4,.1-.37,.58c-.27-.03-.55,0-.55,0v-.37l-3.07-.03-.07,.68-1.08-.41-2.73,.04-.47,.61-5.08,.21,.03,.47h-.31l-.58,.59-5.01,.1-.03,.71-9.14-.07c.48,2.32,4.33,3.07,4.33,3.07l80.98-.17Z"/>
</svg>