<?xml version="1.0" encoding="UTF-8"?>
<svg id="Ebene_1" data-name="Ebene 1" xmlns="http://www.w3.org/2000/svg" viewBox="0 0 95 95">
    <defs>
        <style>
            .troopbadge-medal {
            fill: #4a4a4a;
            }

            .troopbadge-symbol {
            fill: #737373;
            }
        </style>
    </defs>
    <g>
        <circle class="troopbadge-medal" cx="47.5" cy="47.5" r="47.25"/>
        <path class="troopbadge-medal"
              d="M47.5,.5c25.92,0,47,21.08,47,47s-21.08,47-47,47S.5,73.42,.5,47.5,21.58,.5,47.5,.5m0-.5C21.27,0,0,21.27,0,47.5s21.27,47.5,47.5,47.5,47.5-21.27,47.5-47.5S73.73,0,47.5,0h0Z"/>
    </g>
    <path class="troopbadge-symbol"
          d="M87.7,40.31c-.06-.89-.47-2.23-3.01-2.58-1.25-.17-9.6-1.25-17.76-2.3,0-.02,.01-.03,.01-.04-.01-.16-.18-.33-.42-.42v-2.34c.21-.09,.36-.31,.36-.55v-.75c0-.33-.27-.6-.6-.6h-2.56c-.33,0-.6,.27-.6,.6v.75c0,.24,.15,.46,.36,.55v1.91c-.23,.04-.41,.19-.46,.39-1.59-.2-3.12-.4-4.54-.58,0-.02,.01-.03,.01-.05-.01-.16-.18-.33-.42-.42v-2.34c.21-.09,.36-.3,.36-.55v-.75c0-.33-.27-.6-.6-.6h-2.56c-.33,0-.6,.27-.6,.6v.75c0,.25,.15,.46,.36,.55v1.91c-.23,.04-.41,.2-.47,.4-2.07-.27-3.55-.46-4.09-.53v-4.53c0-5.1-1.34-9.24-2.99-9.24s-2.99,4.14-2.99,9.24v4.53c-.53,.07-2.01,.26-4.08,.53-.05-.2-.24-.35-.47-.4v-1.91c.21-.09,.36-.3,.36-.55v-.75c0-.33-.27-.6-.6-.6h-2.56c-.33,0-.6,.27-.6,.6v.75c0,.25,.15,.46,.36,.55v2.34c-.23,.09-.41,.26-.42,.42,0,.02,.01,.03,.01,.05-1.42,.18-2.95,.38-4.54,.58-.05-.2-.24-.35-.46-.39v-1.91c.21-.09,.36-.31,.36-.55v-.75c0-.33-.27-.6-.6-.6h-2.56c-.33,0-.6,.27-.6,.6v.75c0,.24,.15,.46,.36,.55v2.34c-.24,.09-.41,.26-.42,.42,0,.02,0,.03,.01,.04-8.16,1.05-16.51,2.13-17.76,2.3-2.55,.34-2.95,1.69-3.01,2.58-.08,1.12,.41,2.2,2.13,2.55,1.68,.34,33.83,3.23,35.32,3.37l.14,2.05-.41,.12,.23,2.92h.39l.87,12.93c-6.01,1.38-11.81,2.68-12.73,2.8-2.01,.27-2.33,1.34-2.38,2.04-.06,.89,.33,1.74,1.69,2.01,.66,.13,7.28,.29,13.92,.42l.27,3.94h1.55l.26-3.94c6.63-.13,13.26-.29,13.92-.42,1.36-.27,1.75-1.13,1.69-2.01-.05-.7-.37-1.77-2.38-2.04-.92-.12-6.72-1.43-12.73-2.8l.87-12.93h.39l.23-2.92-.41-.12,.14-2.05c1.49-.13,33.64-3.03,35.32-3.37,1.72-.34,2.21-1.42,2.13-2.55"/>
</svg>