<?xml version="1.0" encoding="UTF-8"?>
<svg id="Ebene_1" data-name="Ebene 1" xmlns="http://www.w3.org/2000/svg" viewBox="0 0 95 95">
  <defs>
    <style>
      .cls-1 {
        fill: #4a4a4a;
      }

      .cls-2 {
        fill: #737373;
      }
    </style>
  </defs>
  <g>
    <circle class="cls-1" cx="47.5" cy="47.5" r="47.25"/>
    <path class="cls-1" d="M47.5,.5c25.92,0,47,21.08,47,47s-21.08,47-47,47S.5,73.42,.5,47.5,21.58,.5,47.5,.5m0-.5C21.27,0,0,21.27,0,47.5s21.27,47.5,47.5,47.5,47.5-21.27,47.5-47.5S73.73,0,47.5,0h0Z"/>
  </g>
  <path class="cls-2" d="M89.04,55.35c1.05-1.58,1.74-3.75,1.74-3.75,.03-1.06-.92-1.06-.92-1.06l-9.86,.17v-.89h-3.74v-.52h-3.36v-.69h-3.51v-.52l-2.96,.03-.03-.5-1.08,.03v-2.04h-.69v-1.25l-2.07-.56-.03-1.54-.76,.03,.03-1.35h-.29v-1.32h-1.81v1.38h-.33l.06,2.99-.36,.06v.56l-.46,.03,.03,.92h-2.07l-.23-1.78h-3.19l.56,5.33-8.83,.03-.03-.63h-1.91l.03-2.5-1.05,.03-.1-1.68-2.86,.07,.1,2.33h-.52v-.65h-2.57v1.41h-.92l-.03-.63-1.68-.03-.03,3.12-1.15,.1v-1.45h-1.02l.06-.79-5.65-.07c0-.52-.63-.62-.63-.62l-1.08-.03c-.69,.06-.76,.72-.76,.72l.03,.79h-1.8l-.06,1.34-1.84-.03,.03,.55h-3.02v.47h-3.39l.04,1.08-8.87,.03,.1,3.13,84.73,.1Z"/>
</svg>