<?xml version="1.0" encoding="UTF-8"?>
<svg id="Ebene_1" data-name="Ebene 1" xmlns="http://www.w3.org/2000/svg" viewBox="0 0 95 95">
  <defs>
    <style>
      .cls-1 {
        fill: #4a4a4a;
      }

      .cls-2 {
        fill: #737373;
      }
    </style>
  </defs>
  <g>
    <circle class="cls-1" cx="47.5" cy="47.5" r="47.25"/>
    <path class="cls-1" d="M47.5,.5c25.92,0,47,21.08,47,47s-21.08,47-47,47S.5,73.42,.5,47.5,21.58,.5,47.5,.5m0-.5C21.27,0,0,21.27,0,47.5s21.27,47.5,47.5,47.5,47.5-21.27,47.5-47.5S73.73,0,47.5,0h0Z"/>
  </g>
  <path class="cls-2" d="M75.8,56.64H9.36s-.25-.34-.25-1.74h2.22v-1.65h2.55l.42-.54h.61v.17h.89v-.4l1.45,.37,.61-.02v-1.19h2.55l.44-.53h.61v.19h.4v.3h.86v.38h.8v.79h.28v.51h.89v-.24h.24l.35-.4h5.3v-.66h.56v-.65h1.37v-.21h.87v.84h.84v.67h4.46l.67,.37h1.29v-1.54h.14v-.77h1.1v.75h.21v.96h1.64l-.4-2.66,.23-.09,.05-.4,2.22-.33,.32,.37h.21l.14,.63h.98l.28-5.34-.77-.52v-.91h2.57v.89l-.77,.52v3.48h1.23v-.51h.19l.14-.14h.37l.15,.15h.46v.46l1.65,.16v.6h1.19l.16,.39h.4l.09,.09h.56l1.08,.38v.94h1.65v-.43h.88v-.28h.47v-.19h.56l.46,.45h2.59v1.04l.94-.25h.36v.36h.72v-.21h.56l.54,.55h2.52v.95l.52-.11v.15l3.11-.26v.16l2.38-.12v.37l2.92-.15-1.86,4.05Z"/>
</svg>