<?xml version="1.0" encoding="UTF-8"?>
<svg id="Ebene_1" data-name="Ebene 1" xmlns="http://www.w3.org/2000/svg" viewBox="0 0 95 95">
    <defs>
        <style>
            .troopbadge-medal {
            fill: #4a4a4a;
            }

            .troopbadge-symbol {
            fill: #737373;
            }
        </style>
    </defs>
    <g>
        <circle class="troopbadge-medal" cx="47.5" cy="47.5" r="47.25"/>
        <path class="troopbadge-medal"
              d="M47.5,.5c25.92,0,47,21.08,47,47s-21.08,47-47,47S.5,73.42,.5,47.5,21.58,.5,47.5,.5m0-.5C21.27,0,0,21.27,0,47.5s21.27,47.5,47.5,47.5,47.5-21.27,47.5-47.5S73.73,0,47.5,0h0Z"/>
    </g>
    <path class="troopbadge-symbol"
          d="M47.5,16.92c1.38,.11,1.27,1.28,1.27,1.28h1.3c2.36,1.24,1.79,6.81,1.79,6.81-.02,.35-.36,.4-.36,.4l-.16,.98,29.34,3.09c3.4,.32,4.78,4.68,4.69,5.64-.44,5.5-4.79,5.94-4.79,5.94l-29.77,3.85-.7,18.48,11.43,5.13c2.2,1.09,1.12,3.95-.42,4.25-.74,.06-11.26,.65-11.26,.65v3.19c0,1.55-1.09,1.49-1.09,1.49h-2.54s-1.09,.06-1.08-1.49v-3.19s-10.53-.59-11.27-.65c-1.54-.29-2.62-3.16-.42-4.25l11.43-5.13-.7-18.48-29.77-3.84s-4.36-.44-4.8-5.94c-.1-.96,1.29-5.32,4.69-5.64l29.34-3.09-.16-.98s-.34-.05-.36-.4c0,0-.57-5.57,1.79-6.81h1.3s-.11-1.18,1.27-1.28h0Z"/>
</svg>