<?xml version="1.0" encoding="UTF-8"?>
<svg id="Ebene_1" data-name="Ebene 1" xmlns="http://www.w3.org/2000/svg" viewBox="0 0 95 95">
    <defs>
        <style>
            .troopbadge-medal {
            fill: #4a4a4a;
            }

            .troopbadge-symbol {
            fill: #737373;
            }
        </style>
    </defs>
    <g>
        <circle class="troopbadge-medal" cx="47.5" cy="47.5" r="47.25"/>
        <path class="troopbadge-medal"
              d="M47.5,.5c25.92,0,47,21.08,47,47s-21.08,47-47,47S.5,73.42,.5,47.5,21.58,.5,47.5,.5m0-.5C21.27,0,0,21.27,0,47.5s21.27,47.5,47.5,47.5,47.5-21.27,47.5-47.5S73.73,0,47.5,0h0Z"/>
    </g>
    <path class="troopbadge-symbol"
          d="M48.32,22.45c.03-.39,.03-.91,.03-.91-.3-.27-.42-.85-.42-.85-.78-.63-1.21-1.69-1.21-1.69,.09-.48,.63-.72,.63-.72,.48-.82,1.15-1.06,1.15-1.06,0,0,1.48-3.83,2.99-4.44,1.3-.85,3.53-.21,3.53-.21,3.2,.91,3.35,3.08,3.35,3.08,.06,.45-.3,3.92-.3,3.92,.63,.24,.66,1.54,.66,1.54,.3,1.6-2.05,1.6-3.17,1.72-.39,1.75-1.57,2.51-1.57,2.51v1.21c1.24,.82,2.6,2.23,2.6,2.23,.66,1,.45,3.74,.45,3.74l-.42,.94c.51,.57-.21,3.08-.21,3.08,0,1-.48,1.48-.48,1.48v1.69c.09,.54-.51,1.27-.51,1.27,.24,.45,.45,1.84,.45,1.84l.48,.94,2.63-.15c0-.72,1-.06,1-.06l13.92-.33v-.45c-.06-.51,.51-.48,.51-.48,0,0,.91-.12,.91,.48,0,.15-.06,.36-.06,.36h1c.3,.69,.15,1.69,.15,1.69l-3.41,.21-.06,.21-12.86,.94c-.39,.54-1.06,.06-1.06,.06l-2.2,.21c-.21,.33-.69,.72-.69,.72,.09,1.33-1.21,1.21-1.21,1.21-.85,.27-2.26,.15-2.26,.15-.6-.24-1.42-.94-1.42-.94-.63,.78,.27,.78-.85,1.9-.18,.36,.15,1.48,.15,1.48,.12,.42-.78,.24-.78,.24,.54,1.36,2.17,3.53,2.26,3.89,.24,.66,.42,2.23,.42,2.23,0,0,1.54,2.11,1.54,2.99,.18,.48-.69,2.23-.69,2.23l-.94,2.54-2.69,7.28c-.24,.57-.06,1.78-.06,1.78,0,0-.15,.91,.06,1.27,.3,.39,.42,1.06,.42,1.06,.33,.3,1.66,.63,1.66,.63,.36,.15,.97,.72,.97,.72,1.78,.18,.78,1.9,.78,1.9l.15,.94-6.79,.06c-.63-.21-1.42-.72-1.42-.72l-1.84,.06s-1.42-.63-1.42-.94c.03-.33,.36-1.36,.36-1.36v-1.18c.18-.66,.63-1.66,.63-1.66,0,0,.12-.82,.21-1.12,.12-.27,.63-.78,.63-.78,.48-1.24,.42-4.74,2.57-10.02-.94-1,.42-1.78,.42-1.78,.72-1.03,0-1.42,0-1.42-1.33-.85-2.32-1.81-2.42-2.2-.18,.54-1.54,1.93-1.54,1.93l-1.9,3.62c-.45,.63-1.54,1.9-1.54,1.9,.15,.33-1.48,2.2-1.48,2.2l-1.78,2.96-1.84,2.63c.12,.6-.51,2.02-.51,2.02,.21,.24-.03,1.36,.24,1.87,.33,.12,1.75,1.21,1.75,1.21,1.78,.06,.85,1.84,.85,1.84l-.09,.94-4.8-.06c-1.3-.36-2.2-1.57-2.2-1.57-.27-1.39-.82-2.11-.82-2.11l-1.21-.42c-.69-.72-1.27-1.99-1.27-1.99l1-1.06c-.09-.82,.97-1.54,.97-1.54,.36-.18-.06-1.03,1.27-1.42,1.66-4.8,4.56-8.42,4.56-8.42-.75-.78,.21-2.69,.21-2.69l1.27-3.53c.15-2.9,1.72-3.96,1.72-3.96-.75-.66-1.3-2.26-1.3-2.26-.48-.39-.94-1.06-.94-1.06l-4.86,2.54c-1.24,.45-1.21-.57-1.21-.57l.21-3.23c.06-.57,.54-.48,.54-.48l5.52-.72,.51-.42-.15-.51c-.91,.72-1.87-.33-1.87-.33l-1.6-4.59-.78-2.08c-1.06-1.48-.94-3.68-.94-3.68,.09-.69,1.54-1.69,1.54-1.69,.51-.54,.48-1.33,.66-1.63,.3-.21,1.48-.51,1.48-.51,.48-.12,.69-1.15,.91-1.42,.82-.63,1.18-.36,1.48-.69,.48-.3,.72-1.06,.72-1.06,.42-.33,1.09-.06,1.27-.63,.6-1.45,3.56-2.75,3.56-2.75l3.71-.24,1.78-1.42,.72-.06h-.09Zm-9.84,14.7l-.48-.94v-.48c-.39,.15-.82,.78-.82,.78l.12,.69,1.18-.09v.03Z"/>
</svg>