<?xml version="1.0" encoding="UTF-8"?>
<svg id="Ebene_1" data-name="Ebene 1" xmlns="http://www.w3.org/2000/svg" viewBox="0 0 95 95">
  <defs>
    <style>
      .cls-1 {
        fill: #4a4a4a;
      }

      .cls-2 {
        fill: #737373;
      }
    </style>
  </defs>
  <g>
    <circle class="cls-1" cx="47.5" cy="47.5" r="47.25"/>
    <path class="cls-1" d="M47.5,.5c25.92,0,47,21.08,47,47s-21.08,47-47,47S.5,73.42,.5,47.5,21.58,.5,47.5,.5m0-.5C21.27,0,0,21.27,0,47.5s21.27,47.5,47.5,47.5,47.5-21.27,47.5-47.5S73.73,0,47.5,0h0Z"/>
  </g>
  <path class="cls-2" d="M5.37,53.62s-1.57-1.3-1.66-1.79c0-1,1.08-1.13,1.08-1.13l8.09-.03v-.59h.39l.06-.33h.96l.03-.22,26.97,.08,.06-.36h2.96l.03-.97h4.15l.03,.92,2.6,.06v.33l.63,.03,.03-1.79h-.25l.03-.72-.22-.03,.05-.63h3.79l-.03-2.87h1.19v-2.46h2.15l.06,2.38,1.13-.03-.03,2.74,3.61,.03v.22h1.64l.03,2.98,10.5-.19v-.44l1.3-.03,.03,.33,9.56-.37,.03-.47,1.16-.03v.47l2.46-.03c1.41,0,1.33,1.53,1.33,1.53-.33,4.22-1.88,3.67-1.88,3.67"/>
</svg>