<?xml version="1.0" encoding="UTF-8"?>
<svg id="Ebene_1" data-name="Ebene 1" xmlns="http://www.w3.org/2000/svg" viewBox="0 0 95 95">
  <defs>
    <style>
      .cls-1 {
        fill: #4a4a4a;
      }

      .cls-2 {
        fill: #737373;
      }
    </style>
  </defs>
  <g>
    <circle class="cls-1" cx="47.5" cy="47.5" r="47.25"/>
    <path class="cls-1" d="M47.5,.5c25.92,0,47,21.08,47,47s-21.08,47-47,47S.5,73.42,.5,47.5,21.58,.5,47.5,.5m0-.5C21.27,0,0,21.27,0,47.5s21.27,47.5,47.5,47.5,47.5-21.27,47.5-47.5S73.73,0,47.5,0h0Z"/>
  </g>
  <path class="cls-2" d="M9.15,49.6c.15,0,.27-.12,.27-.27v-.3c0-.15,.12-.27,.26-.27h.51c.15,0,.27,.13,.27,.27v.26c0,.15,.09,.27,.21,.26,.12,0,.22,.12,.22,.26v.54c0,.15,.13,.27,.27,.27h9.36c.15,0,.27,.04,.27,.08,0,.04,.12,.08,.27,.08h.04c.15,0,.27-.05,.27-.1s.12-.09,.27-.09h.51c.15,0,.27,.06,.27,.13s.12,.13,.27,.13h.79c.15,0,.27-.07,.27-.14,0-.08,.12-.14,.27-.14h.16c.14,0,.27-.12,.27-.27v-1.33c0-.15,.08-.27,.17-.27s.17-.12,.17-.27v-7.94c0-.15,.12-.27,.27-.27h1.65c.15,0,.27,.12,.27,.27v7.84c0,.15,.06,.27,.13,.27s.13,.12,.13,.27v1.43c0,.15,.11,.27,.25,.27s.25,.07,.25,.16,.12,.16,.27,.16h3.51c.15,0,.27-.12,.27-.27v-1.33c0-.15,.12-.27,.26-.27h3.83c.15,0,.27-.12,.27-.27v-.38c0-.15,.12-.27,.27-.27h.22c.15,0,.27,.12,.27,.27v.35c0,.15,.12,.27,.27,.27h1.02c.14,0,.27-.12,.27-.27v-1.77c0-.15,.12-.27,.26-.27h.1c.15,0,.27,.12,.27,.27v.86c0,.15,.09,.27,.2,.27s.2,.12,.2,.27v.42c0,.15,.12,.27,.27,.27h.79c.14,0,.26-.12,.26-.27v-.13c0-.15,.12-.27,.27-.27h1.71c.15,0,.27-.12,.27-.27v-2.41c0-.15,.12-.27,.27-.27h.32c.15,0,.27,.11,.27,.24s.12,.24,.27,.24h1.49c.15,0,.27-.12,.27-.27v-.99c0-.14,.04-.27,.09-.27s.1-.12,.1-.27v-1.36c0-.15,.12-.27,.27-.27h.92c.15,0,.27,.12,.27,.27v1.33c0,.15,.07,.27,.16,.27s.16,.12,.16,.27v1.02c0,.15,.12,.27,.27,.27h1.74c.14,0,.27-.12,.27-.27h0c0-.15,.12-.27,.27-.27h.35c.15,0,.27,.12,.27,.27v1.08c0,.15,.12,.27,.27,.27h.07c.14,0,.27,.12,.27,.27v3.32c0,.15,.12,.27,.27,.27h.1c.15,0,.27-.04,.27-.08,0-.04,.12-.08,.27-.08h5.41c.15,0,.27-.12,.27-.27v-1.65c0-.15,.06-.27,.13-.27s.13-.12,.13-.27v-8.38c0-.15,.12-.27,.27-.27h1.62c.15,0,.27,.12,.27,.27v8.35c0,.15,.06,.27,.14,.27s.14,.12,.14,.27v1.65c0,.15,.12,.27,.27,.27h9.93c.15,0,.27-.12,.27-.27v-1.39c0-.15,.07-.27,.16-.27s.16-.12,.16-.27v-8.41c0-.15,.12-.27,.27-.27h1.55c.15,0,.27,.12,.27,.27v8.44c0,.15,.05,.27,.11,.27,.06,0,.11,.12,.11,.27v1.33c0,.15,.12,.27,.27,.27h3.42c.15,0,.3-.04,.35-.08,.04-.04,.15-.08,.24-.08s.2,.03,.24,.08c.04,.04,.2,.08,.34,.08h4.68c.15,0,.27-.12,.27-.27v-.79c0-.15,.12-.27,.27-.27h1.17c.15,0,.27,.12,.27,.27v.04c0,.15,.12,.27,.27,.27h1.68c.15,0,.27,.11,.27,.25s.12,.25,.27,.25h1.99c.15,0,.27,.12,.29,.27,0,0,.24,3.53-1.67,4.81H6.92c-.15,0-.36-.08-.47-.17l-1.59-3.12c-.07-.13-.13-.35-.13-.5v-.95c0,.06,.05,.06,.12,0,.06-.07,.12-.24,.12-.39v-.43c0-.15,.12-.27,.27-.27h3.91Z"/>
</svg>