<?xml version="1.0" encoding="UTF-8"?>
<svg id="Ebene_1" data-name="Ebene 1" xmlns="http://www.w3.org/2000/svg" viewBox="0 0 95 95" width="75" height="75">
  <defs>
    <style>
      .cls-1 {
        fill: #ffc107;
      }

      .cls-2 {
        fill: #ffeb3b;
      }
    </style>
  </defs>
  <g>
    <circle class="cls-1" cx="47.5" cy="47.5" r="47.25"/>
    <path class="cls-1" d="M47.5,.5c25.92,0,47,21.08,47,47s-21.08,47-47,47S.5,73.42,.5,47.5,21.58,.5,47.5,.5m0-.5C21.27,0,0,21.27,0,47.5s21.27,47.5,47.5,47.5,47.5-21.27,47.5-47.5S73.73,0,47.5,0h0Z"/>
  </g>
  <polygon class="cls-2" points="47.5 17.5 56.77 37.25 77.5 40.42 62.5 55.79 66.04 77.5 47.5 67.25 28.96 77.5 32.5 55.79 17.5 40.42 38.23 37.25 47.5 17.5"/>
</svg>